<svg version="1.1" xmlns="http://www.w3.org/2000/svg" xmlns:xlink="http://www.w3.org/1999/xlink" width="548.54353" height="856.86186" viewBox="0,0,548.54353,856.86186"><defs><radialGradient cx="18.82046" cy="424.5364" r="15.76577" gradientUnits="userSpaceOnUse" id="color-1"><stop offset="0" stop-color="#00f2ff" stop-opacity="0"/><stop offset="1" stop-color="#00f2ff" stop-opacity="0.2902"/></radialGradient><radialGradient cx="192.24389" cy="425.28715" r="20.27027" gradientUnits="userSpaceOnUse" id="color-2"><stop offset="0" stop-color="#00f2ff" stop-opacity="0"/><stop offset="1" stop-color="#00f2ff" stop-opacity="0.2902"/></radialGradient><radialGradient cx="382.18383" cy="435.79766" r="61.56156" gradientUnits="userSpaceOnUse" id="color-3"><stop offset="0" stop-color="#00f2ff" stop-opacity="0"/><stop offset="1" stop-color="#00f2ff" stop-opacity="0.2902"/></radialGradient><radialGradient cx="62.36401" cy="574.68655" r="36.78679" gradientUnits="userSpaceOnUse" id="color-4"><stop offset="0" stop-color="#00f2ff" stop-opacity="0"/><stop offset="1" stop-color="#00f2ff" stop-opacity="0.2902"/></radialGradient><radialGradient cx="311.61326" cy="579.19105" r="15.76577" gradientUnits="userSpaceOnUse" id="color-5"><stop offset="0" stop-color="#00f2ff" stop-opacity="0"/><stop offset="1" stop-color="#00f2ff" stop-opacity="0.2902"/></radialGradient><radialGradient cx="469.27091" cy="587.44931" r="66.06607" gradientUnits="userSpaceOnUse" id="color-6"><stop offset="0" stop-color="#00f2ff" stop-opacity="0"/><stop offset="1" stop-color="#00f2ff" stop-opacity="0.2902"/></radialGradient><radialGradient cx="428.73037" cy="735.34721" r="52.55255" gradientUnits="userSpaceOnUse" id="color-7"><stop offset="0" stop-color="#00f2ff" stop-opacity="0"/><stop offset="1" stop-color="#00f2ff" stop-opacity="0.2902"/></radialGradient><radialGradient cx="171.97362" cy="700.81267" r="45.7958" gradientUnits="userSpaceOnUse" id="color-8"><stop offset="0" stop-color="#00f2ff" stop-opacity="0"/><stop offset="1" stop-color="#00f2ff" stop-opacity="0.2902"/></radialGradient><radialGradient cx="44.34599" cy="685.04691" r="40.54054" gradientUnits="userSpaceOnUse" id="color-9"><stop offset="0" stop-color="#00f2ff" stop-opacity="0"/><stop offset="1" stop-color="#00f2ff" stop-opacity="0.2902"/></radialGradient><radialGradient cx="294.34599" cy="763.87574" r="68.31832" gradientUnits="userSpaceOnUse" id="color-10"><stop offset="0" stop-color="#00f2ff" stop-opacity="0"/><stop offset="1" stop-color="#00f2ff" stop-opacity="0.2902"/></radialGradient><radialGradient cx="159.9616" cy="787.89976" r="106.60661" gradientUnits="userSpaceOnUse" id="color-11"><stop offset="0" stop-color="#00f2ff" stop-opacity="0"/><stop offset="1" stop-color="#00f2ff" stop-opacity="0.2902"/></radialGradient><radialGradient cx="44.34599" cy="676.0379" r="22.52252" gradientUnits="userSpaceOnUse" id="color-12"><stop offset="0" stop-color="#00f2ff" stop-opacity="0"/><stop offset="1" stop-color="#00f2ff" stop-opacity="0.2902"/></radialGradient><radialGradient cx="-4.45281" cy="750.36222" r="33.78378" gradientUnits="userSpaceOnUse" id="color-13"><stop offset="0" stop-color="#00f2ff" stop-opacity="0"/><stop offset="1" stop-color="#00f2ff" stop-opacity="0.2902"/></radialGradient><radialGradient cx="314.61626" cy="757.11898" r="58.55856" gradientUnits="userSpaceOnUse" id="color-14"><stop offset="0" stop-color="#00f2ff" stop-opacity="0"/><stop offset="1" stop-color="#00f2ff" stop-opacity="0.2902"/></radialGradient><radialGradient cx="458.00965" cy="620.48234" r="9.75976" gradientUnits="userSpaceOnUse" id="color-15"><stop offset="0" stop-color="#00f2ff" stop-opacity="0"/><stop offset="1" stop-color="#00f2ff" stop-opacity="0.2902"/></radialGradient><radialGradient cx="480.53217" cy="629.49135" r="63.06306" gradientUnits="userSpaceOnUse" id="color-16"><stop offset="0" stop-color="#00f2ff" stop-opacity="0"/><stop offset="1" stop-color="#00f2ff" stop-opacity="0.2902"/></radialGradient><radialGradient cx="465.51716" cy="451.56342" r="33.78378" gradientUnits="userSpaceOnUse" id="color-17"><stop offset="0" stop-color="#00f2ff" stop-opacity="0"/><stop offset="1" stop-color="#00f2ff" stop-opacity="0.2902"/></radialGradient><radialGradient cx="220.02166" cy="440.30216" r="66.06607" gradientUnits="userSpaceOnUse" id="color-18"><stop offset="0" stop-color="#00f2ff" stop-opacity="0"/><stop offset="1" stop-color="#00f2ff" stop-opacity="0.2902"/></radialGradient><radialGradient cx="52.60425" cy="450.06192" r="38.28829" gradientUnits="userSpaceOnUse" id="color-19"><stop offset="0" stop-color="#00f2ff" stop-opacity="0"/><stop offset="1" stop-color="#00f2ff" stop-opacity="0.2902"/></radialGradient><radialGradient cx="4.5562" cy="558.17003" r="41.29129" gradientUnits="userSpaceOnUse" id="color-20"><stop offset="0" stop-color="#00f2ff" stop-opacity="0"/><stop offset="1" stop-color="#00f2ff" stop-opacity="0.2902"/></radialGradient><radialGradient cx="117.16881" cy="452.31418" r="33.03303" gradientUnits="userSpaceOnUse" id="color-21"><stop offset="0" stop-color="#00f2ff" stop-opacity="0"/><stop offset="1" stop-color="#00f2ff" stop-opacity="0.2902"/></radialGradient><radialGradient cx="127.67932" cy="567.92979" r="11.26126" gradientUnits="userSpaceOnUse" id="color-22"><stop offset="0" stop-color="#00f2ff" stop-opacity="0"/><stop offset="1" stop-color="#00f2ff" stop-opacity="0.2902"/></radialGradient><radialGradient cx="219.27091" cy="539.40126" r="15.01502" gradientUnits="userSpaceOnUse" id="color-23"><stop offset="0" stop-color="#00f2ff" stop-opacity="0"/><stop offset="1" stop-color="#00f2ff" stop-opacity="0.2902"/></radialGradient><radialGradient cx="283.08473" cy="638.50036" r="30.03003" gradientUnits="userSpaceOnUse" id="color-24"><stop offset="0" stop-color="#00f2ff" stop-opacity="0"/><stop offset="1" stop-color="#00f2ff" stop-opacity="0.2902"/></radialGradient><radialGradient cx="361.91356" cy="525.137" r="29.27928" gradientUnits="userSpaceOnUse" id="color-25"><stop offset="0" stop-color="#00f2ff" stop-opacity="0"/><stop offset="1" stop-color="#00f2ff" stop-opacity="0.2902"/></radialGradient><radialGradient cx="373.17482" cy="630.99285" r="39.03904" gradientUnits="userSpaceOnUse" id="color-26"><stop offset="0" stop-color="#00f2ff" stop-opacity="0"/><stop offset="1" stop-color="#00f2ff" stop-opacity="0.2902"/></radialGradient><radialGradient cx="110.41205" cy="631.74361" r="32.28228" gradientUnits="userSpaceOnUse" id="color-27"><stop offset="0" stop-color="#00f2ff" stop-opacity="0"/><stop offset="1" stop-color="#00f2ff" stop-opacity="0.2902"/></radialGradient><radialGradient cx="195.24689" cy="570.93279" r="13.51351" gradientUnits="userSpaceOnUse" id="color-28"><stop offset="0" stop-color="#00f2ff" stop-opacity="0"/><stop offset="1" stop-color="#00f2ff" stop-opacity="0.2902"/></radialGradient><radialGradient cx="250.80245" cy="558.92078" r="46.54655" gradientUnits="userSpaceOnUse" id="color-29"><stop offset="0" stop-color="#00f2ff" stop-opacity="0"/><stop offset="1" stop-color="#00f2ff" stop-opacity="0.2902"/></radialGradient><radialGradient cx="237.28893" cy="661.02288" r="24.77477" gradientUnits="userSpaceOnUse" id="color-30"><stop offset="0" stop-color="#00f2ff" stop-opacity="0"/><stop offset="1" stop-color="#00f2ff" stop-opacity="0.2902"/></radialGradient><radialGradient cx="186.23788" cy="604.71658" r="32.28228" gradientUnits="userSpaceOnUse" id="color-31"><stop offset="0" stop-color="#00f2ff" stop-opacity="0"/><stop offset="1" stop-color="#00f2ff" stop-opacity="0.2902"/></radialGradient><radialGradient cx="183.98563" cy="522.134" r="46.54655" gradientUnits="userSpaceOnUse" id="color-32"><stop offset="0" stop-color="#00f2ff" stop-opacity="0"/><stop offset="1" stop-color="#00f2ff" stop-opacity="0.2902"/></radialGradient><radialGradient cx="427.97962" cy="601.71357" r="18.76877" gradientUnits="userSpaceOnUse" id="color-33"><stop offset="0" stop-color="#00f2ff" stop-opacity="0"/><stop offset="1" stop-color="#00f2ff" stop-opacity="0.2902"/></radialGradient><radialGradient cx="220.02166" cy="694.05592" r="30.03003" gradientUnits="userSpaceOnUse" id="color-34"><stop offset="0" stop-color="#00f2ff" stop-opacity="0"/><stop offset="1" stop-color="#00f2ff" stop-opacity="0.2902"/></radialGradient><radialGradient cx="191.49314" cy="572.4343" r="39.03904" gradientUnits="userSpaceOnUse" id="color-35"><stop offset="0" stop-color="#00f2ff" stop-opacity="0"/><stop offset="1" stop-color="#00f2ff" stop-opacity="0.2902"/></radialGradient><radialGradient cx="25.32196" cy="417.52438" r="15.76577" gradientUnits="userSpaceOnUse" id="color-36"><stop offset="0" stop-color="#00f2ff" stop-opacity="0"/><stop offset="1" stop-color="#00f2ff" stop-opacity="0.2902"/></radialGradient><radialGradient cx="198.74539" cy="416.77363" r="20.27027" gradientUnits="userSpaceOnUse" id="color-37"><stop offset="0" stop-color="#00f2ff" stop-opacity="0"/><stop offset="1" stop-color="#00f2ff" stop-opacity="0.2902"/></radialGradient><radialGradient cx="388.68533" cy="406.26312" r="61.56156" gradientUnits="userSpaceOnUse" id="color-38"><stop offset="0" stop-color="#00f2ff" stop-opacity="0"/><stop offset="1" stop-color="#00f2ff" stop-opacity="0.2902"/></radialGradient><radialGradient cx="68.86551" cy="267.37423" r="36.78679" gradientUnits="userSpaceOnUse" id="color-39"><stop offset="0" stop-color="#00f2ff" stop-opacity="0"/><stop offset="1" stop-color="#00f2ff" stop-opacity="0.2902"/></radialGradient><radialGradient cx="318.11476" cy="262.86973" r="15.76577" gradientUnits="userSpaceOnUse" id="color-40"><stop offset="0" stop-color="#00f2ff" stop-opacity="0"/><stop offset="1" stop-color="#00f2ff" stop-opacity="0.2902"/></radialGradient><radialGradient cx="475.77241" cy="254.61147" r="66.06607" gradientUnits="userSpaceOnUse" id="color-41"><stop offset="0" stop-color="#00f2ff" stop-opacity="0"/><stop offset="1" stop-color="#00f2ff" stop-opacity="0.2902"/></radialGradient><radialGradient cx="435.23187" cy="106.71357" r="52.55255" gradientUnits="userSpaceOnUse" id="color-42"><stop offset="0" stop-color="#00f2ff" stop-opacity="0"/><stop offset="1" stop-color="#00f2ff" stop-opacity="0.2902"/></radialGradient><radialGradient cx="178.47512" cy="141.24811" r="45.7958" gradientUnits="userSpaceOnUse" id="color-43"><stop offset="0" stop-color="#00f2ff" stop-opacity="0"/><stop offset="1" stop-color="#00f2ff" stop-opacity="0.2902"/></radialGradient><radialGradient cx="50.84749" cy="157.01387" r="40.54054" gradientUnits="userSpaceOnUse" id="color-44"><stop offset="0" stop-color="#00f2ff" stop-opacity="0"/><stop offset="1" stop-color="#00f2ff" stop-opacity="0.2902"/></radialGradient><radialGradient cx="300.84749" cy="78.18504" r="68.31832" gradientUnits="userSpaceOnUse" id="color-45"><stop offset="0" stop-color="#00f2ff" stop-opacity="0"/><stop offset="1" stop-color="#00f2ff" stop-opacity="0.2902"/></radialGradient><radialGradient cx="110.90755" cy="46.65352" r="106.60661" gradientUnits="userSpaceOnUse" id="color-46"><stop offset="0" stop-color="#00f2ff" stop-opacity="0"/><stop offset="1" stop-color="#00f2ff" stop-opacity="0.2902"/></radialGradient><radialGradient cx="50.84749" cy="166.02288" r="22.52252" gradientUnits="userSpaceOnUse" id="color-47"><stop offset="0" stop-color="#00f2ff" stop-opacity="0"/><stop offset="1" stop-color="#00f2ff" stop-opacity="0.2902"/></radialGradient><radialGradient cx="2.04869" cy="91.69856" r="33.78378" gradientUnits="userSpaceOnUse" id="color-48"><stop offset="0" stop-color="#00f2ff" stop-opacity="0"/><stop offset="1" stop-color="#00f2ff" stop-opacity="0.2902"/></radialGradient><radialGradient cx="321.11776" cy="84.9418" r="58.55856" gradientUnits="userSpaceOnUse" id="color-49"><stop offset="0" stop-color="#00f2ff" stop-opacity="0"/><stop offset="1" stop-color="#00f2ff" stop-opacity="0.2902"/></radialGradient><radialGradient cx="464.51115" cy="221.57844" r="9.75976" gradientUnits="userSpaceOnUse" id="color-50"><stop offset="0" stop-color="#00f2ff" stop-opacity="0"/><stop offset="1" stop-color="#00f2ff" stop-opacity="0.2902"/></radialGradient><radialGradient cx="487.03367" cy="212.56943" r="63.06306" gradientUnits="userSpaceOnUse" id="color-51"><stop offset="0" stop-color="#00f2ff" stop-opacity="0"/><stop offset="1" stop-color="#00f2ff" stop-opacity="0.2902"/></radialGradient><radialGradient cx="472.01866" cy="390.49736" r="33.78378" gradientUnits="userSpaceOnUse" id="color-52"><stop offset="0" stop-color="#00f2ff" stop-opacity="0"/><stop offset="1" stop-color="#00f2ff" stop-opacity="0.2902"/></radialGradient><radialGradient cx="226.52316" cy="401.75862" r="66.06607" gradientUnits="userSpaceOnUse" id="color-53"><stop offset="0" stop-color="#00f2ff" stop-opacity="0"/><stop offset="1" stop-color="#00f2ff" stop-opacity="0.2902"/></radialGradient><radialGradient cx="59.10575" cy="391.99886" r="38.28829" gradientUnits="userSpaceOnUse" id="color-54"><stop offset="0" stop-color="#00f2ff" stop-opacity="0"/><stop offset="1" stop-color="#00f2ff" stop-opacity="0.2902"/></radialGradient><radialGradient cx="11.0577" cy="283.89075" r="41.29129" gradientUnits="userSpaceOnUse" id="color-55"><stop offset="0" stop-color="#00f2ff" stop-opacity="0"/><stop offset="1" stop-color="#00f2ff" stop-opacity="0.2902"/></radialGradient><radialGradient cx="123.67031" cy="389.7466" r="33.03303" gradientUnits="userSpaceOnUse" id="color-56"><stop offset="0" stop-color="#00f2ff" stop-opacity="0"/><stop offset="1" stop-color="#00f2ff" stop-opacity="0.2902"/></radialGradient><radialGradient cx="134.18082" cy="274.13099" r="11.26126" gradientUnits="userSpaceOnUse" id="color-57"><stop offset="0" stop-color="#00f2ff" stop-opacity="0"/><stop offset="1" stop-color="#00f2ff" stop-opacity="0.2902"/></radialGradient><radialGradient cx="225.77241" cy="302.65952" r="15.01502" gradientUnits="userSpaceOnUse" id="color-58"><stop offset="0" stop-color="#00f2ff" stop-opacity="0"/><stop offset="1" stop-color="#00f2ff" stop-opacity="0.2902"/></radialGradient><radialGradient cx="289.58623" cy="203.56042" r="30.03003" gradientUnits="userSpaceOnUse" id="color-59"><stop offset="0" stop-color="#00f2ff" stop-opacity="0"/><stop offset="1" stop-color="#00f2ff" stop-opacity="0.2902"/></radialGradient><radialGradient cx="368.41506" cy="316.92378" r="29.27928" gradientUnits="userSpaceOnUse" id="color-60"><stop offset="0" stop-color="#00f2ff" stop-opacity="0"/><stop offset="1" stop-color="#00f2ff" stop-opacity="0.2902"/></radialGradient><radialGradient cx="379.67632" cy="211.06793" r="39.03904" gradientUnits="userSpaceOnUse" id="color-61"><stop offset="0" stop-color="#00f2ff" stop-opacity="0"/><stop offset="1" stop-color="#00f2ff" stop-opacity="0.2902"/></radialGradient><radialGradient cx="116.91355" cy="210.31717" r="32.28228" gradientUnits="userSpaceOnUse" id="color-62"><stop offset="0" stop-color="#00f2ff" stop-opacity="0"/><stop offset="1" stop-color="#00f2ff" stop-opacity="0.2902"/></radialGradient><radialGradient cx="201.74839" cy="271.12799" r="13.51351" gradientUnits="userSpaceOnUse" id="color-63"><stop offset="0" stop-color="#00f2ff" stop-opacity="0"/><stop offset="1" stop-color="#00f2ff" stop-opacity="0.2902"/></radialGradient><radialGradient cx="257.30395" cy="283.14" r="46.54655" gradientUnits="userSpaceOnUse" id="color-64"><stop offset="0" stop-color="#00f2ff" stop-opacity="0"/><stop offset="1" stop-color="#00f2ff" stop-opacity="0.2902"/></radialGradient><radialGradient cx="243.79043" cy="181.0379" r="24.77477" gradientUnits="userSpaceOnUse" id="color-65"><stop offset="0" stop-color="#00f2ff" stop-opacity="0"/><stop offset="1" stop-color="#00f2ff" stop-opacity="0.2902"/></radialGradient><radialGradient cx="192.73938" cy="237.3442" r="32.28228" gradientUnits="userSpaceOnUse" id="color-66"><stop offset="0" stop-color="#00f2ff" stop-opacity="0"/><stop offset="1" stop-color="#00f2ff" stop-opacity="0.2902"/></radialGradient><radialGradient cx="190.48713" cy="319.92678" r="46.54655" gradientUnits="userSpaceOnUse" id="color-67"><stop offset="0" stop-color="#00f2ff" stop-opacity="0"/><stop offset="1" stop-color="#00f2ff" stop-opacity="0.2902"/></radialGradient><radialGradient cx="434.48112" cy="240.34721" r="18.76877" gradientUnits="userSpaceOnUse" id="color-68"><stop offset="0" stop-color="#00f2ff" stop-opacity="0"/><stop offset="1" stop-color="#00f2ff" stop-opacity="0.2902"/></radialGradient><radialGradient cx="226.52316" cy="148.00486" r="30.03003" gradientUnits="userSpaceOnUse" id="color-69"><stop offset="0" stop-color="#00f2ff" stop-opacity="0"/><stop offset="1" stop-color="#00f2ff" stop-opacity="0.2902"/></radialGradient><radialGradient cx="197.99464" cy="269.62648" r="39.03904" gradientUnits="userSpaceOnUse" id="color-70"><stop offset="0" stop-color="#00f2ff" stop-opacity="0"/><stop offset="1" stop-color="#00f2ff" stop-opacity="0.2902"/></radialGradient></defs><g transform="translate(38.23659,11.15429)"><g stroke="none" stroke-miterlimit="10"><path d="M30.83248,424.5364c0,8.70719 -5.37796,15.76577 -12.01201,15.76577c-6.63405,0 -12.01201,-7.05857 -12.01201,-15.76577c0,-8.70719 5.37796,-15.76577 12.01201,-15.76577c6.63405,0 12.01201,7.05857 12.01201,15.76577z" fill="url(#color-1)" stroke-width="NaN"/><path d="M212.51416,425.28715c0,6.63405 -9.07531,12.01201 -20.27027,12.01201c-11.19496,0 -20.27027,-5.37796 -20.27027,-12.01201c0,-6.63405 9.07531,-12.01201 20.27027,-12.01201c11.19496,0 20.27027,5.37796 20.27027,12.01201z" fill="url(#color-2)" stroke-width="0"/><path d="M382.18383,408.77063c33.99951,0 61.56156,12.10042 61.56156,27.02703c0,14.92662 -27.56205,27.02703 -61.56156,27.02703c-33.99951,0 -61.56156,-12.10042 -61.56156,-27.02703c0,-14.92662 27.56205,-27.02703 61.56156,-27.02703z" fill="url(#color-3)" stroke-width="0"/><path d="M62.36401,537.89976c10.78033,0 19.51952,16.47001 19.51952,36.78679c0,20.31678 -8.73919,36.78679 -19.51952,36.78679c-10.78033,0 -19.51952,-16.47001 -19.51952,-36.78679c0,-20.31678 8.73919,-36.78679 19.51952,-36.78679z" fill="url(#color-4)" stroke-width="0"/><path d="M323.62527,579.19105c0,8.70719 -5.37796,15.76577 -12.01201,15.76577c-6.63405,0 -12.01201,-7.05857 -12.01201,-15.76577c0,-8.70719 5.37796,-15.76577 12.01201,-15.76577c6.63405,0 12.01201,7.05857 12.01201,15.76577z" fill="url(#color-5)" stroke-width="0"/><path d="M469.27092,521.38324c9.95108,0 18.01802,29.57879 18.01802,66.06607c0,36.48728 -8.06694,66.06607 -18.01802,66.06607c-9.95108,0 -18.01802,-29.57879 -18.01802,-66.06607c0,-36.48728 8.06694,-66.06607 18.01802,-66.06607z" fill="url(#color-6)" stroke-width="0"/><path d="M428.73038,761.62349c-29.02397,0 -52.55255,-11.76429 -52.55255,-26.27628c0,-14.51199 23.52858,-26.27628 52.55255,-26.27628c29.02397,0 52.55255,11.76429 52.55255,26.27628c0,14.51199 -23.52858,26.27628 -52.55255,26.27628z" fill="url(#color-7)" stroke-width="0"/><path d="M171.97362,746.60847c-13.2681,0 -24.02402,-20.50348 -24.02402,-45.7958c0,-25.29232 10.75592,-45.7958 24.02402,-45.7958c13.2681,0 24.02402,20.50348 24.02402,45.7958c0,25.29232 -10.75592,45.7958 -24.02402,45.7958z" fill="url(#color-8)" stroke-width="0"/><path d="M44.34599,725.58745c-9.95108,0 -18.01802,-18.15062 -18.01802,-40.54054c0,-22.38992 8.06694,-40.54054 18.01802,-40.54054c9.95108,0 18.01802,18.15062 18.01802,40.54054c0,22.38992 -8.06694,40.54054 -18.01802,40.54054z" fill="url(#color-9)" stroke-width="0"/><path d="M307.10875,763.87574c0,37.73117 -5.71408,68.31832 -12.76276,68.31832c-7.04868,0 -12.76276,-30.58715 -12.76276,-68.31832c0,-37.73117 5.71408,-68.31832 12.76276,-68.31832c7.04868,0 12.76276,30.58715 12.76276,68.31832z" fill="url(#color-10)" stroke-width="0"/><path d="M159.96161,730.09195c58.87721,0 106.60661,25.88144 106.60661,57.80781c0,31.92637 -47.72941,57.80781 -106.60661,57.80781c-58.87721,0 -106.60661,-25.88144 -106.60661,-57.80781c0,-31.92637 47.72941,-57.80781 106.60661,-57.80781z" fill="url(#color-11)" stroke-width="0"/><path d="M44.34599,659.52138c12.43884,0 22.52252,7.3947 22.52252,16.51652c0,9.12182 -10.08367,16.51652 -22.52252,16.51652c-12.43884,0 -22.52252,-7.3947 -22.52252,-16.51652c0,-9.12182 10.08367,-16.51652 22.52252,-16.51652z" fill="url(#color-12)" stroke-width="0"/><path d="M29.33097,750.36222c0,4.56091 -15.12552,8.25826 -33.78378,8.25826c-18.65827,0 -33.78378,-3.69735 -33.78378,-8.25826c0,-4.56091 15.12552,-8.25826 33.78378,-8.25826c18.65827,0 33.78378,3.69735 33.78378,8.25826z" fill="url(#color-13)" stroke-width="0"/><path d="M373.17482,757.11898c0,25.70695 -26.21756,46.54655 -58.55856,46.54655c-32.341,0 -58.55856,-20.8396 -58.55856,-46.54655c0,-25.70695 26.21756,-46.54655 58.55856,-46.54655c32.341,0 58.55856,20.8396 58.55856,46.54655z" fill="url(#color-14)" stroke-width="0"/><path d="M448.24989,620.48234c0,-1.65851 4.36959,-3.003 9.75976,-3.003c5.39017,0 9.75976,1.34449 9.75976,3.003c0,1.65851 -4.36959,3.003 -9.75976,3.003c-5.39017,0 -9.75976,-1.34449 -9.75976,-3.003z" fill="url(#color-15)" stroke-width="0"/><path d="M457.2589,629.49135c0,-34.82877 10.4198,-63.06306 23.27327,-63.06306c12.85347,0 23.27327,28.2343 23.27327,63.06306c0,34.82877 -10.4198,63.06306 -23.27327,63.06306c-12.85347,0 -23.27327,-28.2343 -23.27327,-63.06306z" fill="url(#color-16)" stroke-width="0"/><path d="M449.75139,451.56342c0,-18.65827 7.05857,-33.78378 15.76577,-33.78378c8.70719,0 15.76577,15.12552 15.76577,33.78378c0,18.65827 -7.05857,33.78378 -15.76577,33.78378c-8.70719,0 -15.76577,-15.12552 -15.76577,-33.78378z" fill="url(#color-17)" stroke-width="0"/><path d="M286.08773,440.30216c0,9.95108 -29.57879,18.01802 -66.06607,18.01802c-36.48728,0 -66.06607,-8.06694 -66.06607,-18.01802c0,-9.95108 29.57879,-18.01802 66.06607,-18.01802c36.48728,0 66.06607,8.06694 66.06607,18.01802z" fill="url(#color-18)" stroke-width="0"/><path d="M52.60425,411.77363c10.36571,0 18.76877,17.14225 18.76877,38.28829c0,21.14604 -8.40307,38.28829 -18.76877,38.28829c-10.36571,0 -18.76877,-17.14225 -18.76877,-38.28829c0,-21.14604 8.40307,-38.28829 18.76877,-38.28829z" fill="url(#color-19)" stroke-width="0"/><path d="M4.5562,611.47333c-22.80455,0 -41.29129,-23.8647 -41.29129,-53.3033c0,-29.4386 18.48674,-53.3033 41.29129,-53.3033c22.80455,0 41.29129,23.8647 41.29129,53.3033c0,29.4386 -18.48674,53.3033 -41.29129,53.3033z" fill="url(#color-20)" stroke-width="0"/><path d="M117.16881,419.28115c6.21942,0 11.26126,14.78939 11.26126,33.03303c0,18.24364 -5.04184,33.03303 -11.26126,33.03303c-6.21942,0 -11.26126,-14.78939 -11.26126,-33.03303c0,-18.24364 5.04184,-33.03303 11.26126,-33.03303z" fill="url(#color-21)" stroke-width="0"/><path d="M138.94058,567.92979c0,4.97554 -5.04184,9.00901 -11.26126,9.00901c-6.21942,0 -11.26126,-4.03347 -11.26126,-9.00901c0,-4.97554 5.04184,-9.00901 11.26126,-9.00901c6.21942,0 11.26126,4.03347 11.26126,9.00901z" fill="url(#color-22)" stroke-width="0"/><path d="M226.02767,539.40126c0,8.29256 -3.0251,15.01502 -6.75676,15.01502c-3.73165,0 -6.75676,-6.72245 -6.75676,-15.01502c0,-8.29256 3.0251,-15.01502 6.75676,-15.01502c3.73165,0 6.75676,6.72245 6.75676,15.01502z" fill="url(#color-23)" stroke-width="0"/><path d="M283.08473,668.53039c-16.58513,0 -30.03003,-13.4449 -30.03003,-30.03003c0,-16.58513 13.4449,-30.03003 30.03003,-30.03003c16.58513,0 30.03003,13.4449 30.03003,30.03003c0,16.58513 -13.4449,30.03003 -30.03003,30.03003z" fill="url(#color-24)" stroke-width="0"/><path d="M391.19284,525.137c0,3.73165 -13.10878,6.75676 -29.27928,6.75676c-16.1705,0 -29.27928,-3.0251 -29.27928,-6.75676c0,-3.73165 13.10878,-6.75676 29.27928,-6.75676c16.1705,0 29.27928,3.0251 29.27928,6.75676z" fill="url(#color-25)" stroke-width="0"/><path d="M373.17482,591.95381c5.80479,0 10.51051,17.47837 10.51051,39.03904c0,21.56067 -4.70572,39.03904 -10.51051,39.03904c-5.80479,0 -10.51051,-17.47837 -10.51051,-39.03904c0,-21.56067 4.70572,-39.03904 10.51051,-39.03904z" fill="url(#color-26)" stroke-width="0"/><path d="M110.41206,599.46133c9.95108,0 18.01802,14.45327 18.01802,32.28228c0,17.82901 -8.06694,32.28228 -18.01802,32.28228c-9.95108,0 -18.01802,-14.45327 -18.01802,-32.28228c0,-17.82901 8.06694,-32.28228 18.01802,-32.28228z" fill="url(#color-27)" stroke-width="0"/><path d="M195.24689,557.41928c0.41463,0 0.75075,6.0502 0.75075,13.51351c0,7.4633 -0.33612,13.51351 -0.75075,13.51351c-0.41463,0 -0.75075,-6.0502 -0.75075,-13.51351c0,-7.4633 0.33612,-13.51351 0.75075,-13.51351z" fill="url(#color-28)" stroke-width="0"/><path d="M250.80244,512.37423c6.21942,0 11.26126,20.8396 11.26126,46.54655c0,25.70695 -5.04184,46.54655 -11.26126,46.54655c-6.21942,0 -11.26126,-20.8396 -11.26126,-46.54655c0,-25.70695 5.04184,-46.54655 11.26126,-46.54655z" fill="url(#color-29)" stroke-width="0"/><path d="M237.28894,665.52738c-13.68273,0 -24.77477,-2.01673 -24.77477,-4.5045c0,-2.48776 11.09204,-4.5045 24.77477,-4.5045c13.68273,0 24.77477,2.01673 24.77477,4.5045c0,2.48776 -11.09204,4.5045 -24.77477,4.5045z" fill="url(#color-30)" stroke-width="0"/><path d="M186.23788,636.99886c-0.41463,0 -0.75075,-14.45327 -0.75075,-32.28228c0,-17.82901 0.33612,-32.28228 0.75075,-32.28228c0.41463,0 0.75075,14.45327 0.75075,32.28228c0,17.82901 -0.33612,32.28228 -0.75075,32.28228z" fill="url(#color-31)" stroke-width="0"/><path d="M230.53217,522.134c0,7.87794 -20.8396,14.26426 -46.54655,14.26426c-25.70695,0 -46.54655,-6.38633 -46.54655,-14.26426c0,-7.87794 20.8396,-14.26426 46.54655,-14.26426c25.70695,0 46.54655,6.38633 46.54655,14.26426z" fill="url(#color-32)" stroke-width="0"/><path d="M427.97963,582.9448c2.9024,0 5.25526,8.40307 5.25526,18.76877c0,10.36571 -2.35286,18.76877 -5.25526,18.76877c-2.9024,0 -5.25526,-8.40307 -5.25526,-18.76877c0,-10.36571 2.35286,-18.76877 5.25526,-18.76877z" fill="url(#color-33)" stroke-width="0"/><path d="M220.02166,724.08595c-9.12182,0 -16.51652,-13.4449 -16.51652,-30.03003c0,-16.58513 7.3947,-30.03003 16.51652,-30.03003c9.12182,0 16.51652,13.4449 16.51652,30.03003c0,16.58513 -7.3947,30.03003 -16.51652,30.03003z" fill="url(#color-34)" stroke-width="0"/><path d="M191.49313,611.47334c-9.95108,0 -18.01802,-17.47837 -18.01802,-39.03904c0,-21.56067 8.06694,-39.03904 18.01802,-39.03904c9.95108,0 18.01802,17.47837 18.01802,39.03904c0,21.56067 -8.06694,39.03904 -18.01802,39.03904z" fill="url(#color-35)" stroke-width="0"/><path d="M25.32197,433.29015c-6.63405,0 -12.01201,-7.05858 -12.01201,-15.76577c0,-8.7072 5.37796,-15.76577 12.01201,-15.76577c6.63405,0 12.01201,7.05858 12.01201,15.76577c0,8.7072 -5.37796,15.76577 -12.01201,15.76577z" fill="url(#color-36)" stroke-width="NaN"/><path d="M198.74539,428.78564c-11.19496,0 -20.27027,-5.37796 -20.27027,-12.01201c0,-6.63405 9.07531,-12.01201 20.27027,-12.01201c11.19496,0 20.27027,5.37796 20.27027,12.01201c0,6.63405 -9.07531,12.01201 -20.27027,12.01201z" fill="url(#color-37)" stroke-width="0"/><path d="M327.12377,406.26312c0,-14.92661 27.56205,-27.02703 61.56156,-27.02703c33.99951,0 61.56156,12.10041 61.56156,27.02703c0,14.92661 -27.56205,27.02703 -61.56156,27.02703c-33.99951,0 -61.56156,-12.10041 -61.56156,-27.02703z" fill="url(#color-38)" stroke-width="0"/><path d="M49.34599,267.37423c0,-20.31678 8.73919,-36.78679 19.51952,-36.78679c10.78033,0 19.51952,16.47001 19.51952,36.78679c0,20.31678 -8.73919,36.78679 -19.51952,36.78679c-10.78033,0 -19.51952,-16.47001 -19.51952,-36.78679z" fill="url(#color-39)" stroke-width="0"/><path d="M318.11476,278.6355c-6.63405,0 -12.01201,-7.05858 -12.01201,-15.76577c0,-8.7072 5.37796,-15.76577 12.01201,-15.76577c6.63405,0 12.01201,7.05858 12.01201,15.76577c0,8.7072 -5.37796,15.76577 -12.01201,15.76577z" fill="url(#color-40)" stroke-width="0"/><path d="M457.7544,254.61147c0,-36.48728 8.06694,-66.06607 18.01802,-66.06607c9.95108,0 18.01802,29.57879 18.01802,66.06607c0,36.48728 -8.06694,66.06607 -18.01802,66.06607c-9.95108,0 -18.01802,-29.57879 -18.01802,-66.06607z" fill="url(#color-41)" stroke-width="0"/><path d="M487.78443,106.71357c0,14.51199 -23.52858,26.27628 -52.55255,26.27628c-29.02397,0 -52.55255,-11.76429 -52.55255,-26.27628c0,-14.51199 23.52858,-26.27628 52.55255,-26.27628c29.02397,0 52.55255,11.76429 52.55255,26.27628z" fill="url(#color-42)" stroke-width="0"/><path d="M202.49914,141.24811c0,25.29232 -10.75592,45.7958 -24.02402,45.7958c-13.2681,0 -24.02402,-20.50348 -24.02402,-45.7958c0,-25.29232 10.75592,-45.7958 24.02402,-45.7958c13.2681,0 24.02402,20.50348 24.02402,45.7958z" fill="url(#color-43)" stroke-width="0"/><path d="M68.86551,157.01387c0,22.38992 -8.06694,40.54054 -18.01802,40.54054c-9.95108,0 -18.01802,-18.15062 -18.01802,-40.54054c0,-22.38992 8.06694,-40.54054 18.01802,-40.54054c9.95108,0 18.01802,18.15062 18.01802,40.54054z" fill="url(#color-44)" stroke-width="0"/><path d="M300.84749,146.50336c-7.04868,0 -12.76276,-30.58715 -12.76276,-68.31832c0,-37.73117 5.71408,-68.31832 12.76276,-68.31832c7.04868,0 12.76276,30.58715 12.76276,68.31832c0,37.73117 -5.71408,68.31832 -12.76276,68.31832z" fill="url(#color-45)" stroke-width="0"/><path d="M4.30095,46.65352c0,-31.92637 47.7294,-57.80781 106.60661,-57.80781c58.8772,0 106.60661,25.88144 106.60661,57.80781c0,31.92637 -47.7294,57.80781 -106.60661,57.80781c-58.8772,0 -106.60661,-25.88144 -106.60661,-57.80781z" fill="url(#color-46)" stroke-width="0"/><path d="M28.32497,166.02288c0,-9.12182 10.08368,-16.51652 22.52252,-16.51652c12.43885,0 22.52252,7.3947 22.52252,16.51652c0,9.12182 -10.08368,16.51652 -22.52252,16.51652c-12.43885,0 -22.52252,-7.3947 -22.52252,-16.51652z" fill="url(#color-47)" stroke-width="0"/><path d="M2.04869,99.95682c-18.65826,0 -33.78378,-3.69735 -33.78378,-8.25826c0,-4.56091 15.12551,-8.25826 33.78378,-8.25826c18.65826,0 33.78378,3.69735 33.78378,8.25826c0,4.56091 -15.12551,8.25826 -33.78378,8.25826z" fill="url(#color-48)" stroke-width="0"/><path d="M321.11776,131.48835c-32.341,0 -58.55856,-20.8396 -58.55856,-46.54655c0,-25.70695 26.21756,-46.54655 58.55856,-46.54655c32.341,0 58.55856,20.8396 58.55856,46.54655c0,25.70695 -26.21756,46.54655 -58.55856,46.54655z" fill="url(#color-49)" stroke-width="0"/><path d="M464.51115,218.57544c5.39017,0 9.75976,1.34449 9.75976,3.003c0,1.65851 -4.36959,3.003 -9.75976,3.003c-5.39017,0 -9.75976,-1.34449 -9.75976,-3.003c0,-1.65851 4.36959,-3.003 9.75976,-3.003z" fill="url(#color-50)" stroke-width="0"/><path d="M487.03367,149.50637c12.85347,0 23.27327,28.23429 23.27327,63.06306c0,34.82876 -10.4198,63.06306 -23.27327,63.06306c-12.85347,0 -23.27327,-28.23429 -23.27327,-63.06306c0,-34.82876 10.4198,-63.06306 23.27327,-63.06306z" fill="url(#color-51)" stroke-width="0"/><path d="M472.01866,356.71358c8.7072,0 15.76577,15.12551 15.76577,33.78378c0,18.65826 -7.05858,33.78378 -15.76577,33.78378c-8.7072,0 -15.76577,-15.12551 -15.76577,-33.78378c0,-18.65826 7.05858,-33.78378 15.76577,-33.78378z" fill="url(#color-52)" stroke-width="0"/><path d="M226.52316,419.77664c-36.48728,0 -66.06607,-8.06694 -66.06607,-18.01802c0,-9.95108 29.57879,-18.01802 66.06607,-18.01802c36.48728,0 66.06607,8.06694 66.06607,18.01802c0,9.95108 -29.57879,18.01802 -66.06607,18.01802z" fill="url(#color-53)" stroke-width="0"/><path d="M40.33698,391.99886c0,-21.14604 8.40306,-38.28829 18.76877,-38.28829c10.3657,0 18.76877,17.14225 18.76877,38.28829c0,21.14604 -8.40306,38.28829 -18.76877,38.28829c-10.3657,0 -18.76877,-17.14225 -18.76877,-38.28829z" fill="url(#color-54)" stroke-width="0"/><path d="M52.34899,283.89075c0,29.4386 -18.48674,53.3033 -41.29129,53.3033c-22.80455,0 -41.29129,-23.8647 -41.29129,-53.3033c0,-29.4386 18.48674,-53.3033 41.29129,-53.3033c22.80455,0 41.29129,23.8647 41.29129,53.3033z" fill="url(#color-55)" stroke-width="0"/><path d="M112.40905,389.7466c0,-18.24364 5.04184,-33.03303 11.26126,-33.03303c6.21942,0 11.26126,14.78939 11.26126,33.03303c0,18.24364 -5.04184,33.03303 -11.26126,33.03303c-6.21942,0 -11.26126,-14.78939 -11.26126,-33.03303z" fill="url(#color-56)" stroke-width="0"/><path d="M134.18082,283.14c-6.21942,0 -11.26126,-4.03347 -11.26126,-9.00901c0,-4.97554 5.04184,-9.00901 11.26126,-9.00901c6.21942,0 11.26126,4.03347 11.26126,9.00901c0,4.97554 -5.04184,9.00901 -11.26126,9.00901z" fill="url(#color-57)" stroke-width="0"/><path d="M225.77241,317.67454c-3.73166,0 -6.75676,-6.72246 -6.75676,-15.01502c0,-8.29257 3.02511,-15.01502 6.75676,-15.01502c3.73166,0 6.75676,6.72246 6.75676,15.01502c0,8.29257 -3.02511,15.01502 -6.75676,15.01502z" fill="url(#color-58)" stroke-width="0"/><path d="M319.61626,203.56042c0,16.58513 -13.4449,30.03003 -30.03003,30.03003c-16.58513,0 -30.03003,-13.4449 -30.03003,-30.03003c0,-16.58513 13.4449,-30.03003 30.03003,-30.03003c16.58513,0 30.03003,13.4449 30.03003,30.03003z" fill="url(#color-59)" stroke-width="0"/><path d="M368.41506,323.68054c-16.1705,0 -29.27928,-3.02511 -29.27928,-6.75676c0,-3.73166 13.10878,-6.75676 29.27928,-6.75676c16.1705,0 29.27928,3.02511 29.27928,6.75676c0,3.73166 -13.10878,6.75676 -29.27928,6.75676z" fill="url(#color-60)" stroke-width="0"/><path d="M369.16581,211.06793c0,-21.56067 4.70572,-39.03904 10.51051,-39.03904c5.80479,0 10.51051,17.47837 10.51051,39.03904c0,21.56067 -4.70572,39.03904 -10.51051,39.03904c-5.80479,0 -10.51051,-17.47837 -10.51051,-39.03904z" fill="url(#color-61)" stroke-width="0"/><path d="M98.89554,210.31717c0,-17.82901 8.06694,-32.28228 18.01802,-32.28228c9.95108,0 18.01802,14.45327 18.01802,32.28228c0,17.82901 -8.06694,32.28228 -18.01802,32.28228c-9.95108,0 -18.01802,-14.45327 -18.01802,-32.28228z" fill="url(#color-62)" stroke-width="0"/><path d="M200.99764,271.12799c0,-7.46331 0.33612,-13.51351 0.75075,-13.51351c0.41463,0 0.75075,6.05021 0.75075,13.51351c0,7.46331 -0.33612,13.51351 -0.75075,13.51351c-0.41463,0 -0.75075,-6.05021 -0.75075,-13.51351z" fill="url(#color-63)" stroke-width="0"/><path d="M246.04268,283.14c0,-25.70695 5.04184,-46.54655 11.26126,-46.54655c6.21942,0 11.26126,20.8396 11.26126,46.54655c0,25.70695 -5.04184,46.54655 -11.26126,46.54655c-6.21942,0 -11.26126,-20.8396 -11.26126,-46.54655z" fill="url(#color-64)" stroke-width="0"/><path d="M268.56521,181.0379c0,2.48777 -11.09204,4.5045 -24.77477,4.5045c-13.68273,0 -24.77477,-2.01674 -24.77477,-4.5045c0,-2.48777 11.09204,-4.5045 24.77477,-4.5045c13.68273,0 24.77477,2.01674 24.77477,4.5045z" fill="url(#color-65)" stroke-width="0"/><path d="M193.49013,237.3442c0,17.82901 -0.33612,32.28228 -0.75075,32.28228c-0.41463,0 -0.75075,-14.45327 -0.75075,-32.28228c0,-17.82901 0.33612,-32.28228 0.75075,-32.28228c0.41463,0 0.75075,14.45327 0.75075,32.28228z" fill="url(#color-66)" stroke-width="0"/><path d="M190.48712,334.19104c-25.70695,0 -46.54655,-6.38632 -46.54655,-14.26426c0,-7.87793 20.8396,-14.26426 46.54655,-14.26426c25.70695,0 46.54655,6.38632 46.54655,14.26426c0,7.87793 -20.8396,14.26426 -46.54655,14.26426z" fill="url(#color-67)" stroke-width="0"/><path d="M429.22587,240.34721c0,-10.3657 2.35286,-18.76877 5.25526,-18.76877c2.9024,0 5.25526,8.40306 5.25526,18.76877c0,10.3657 -2.35286,18.76877 -5.25526,18.76877c-2.9024,0 -5.25526,-8.40306 -5.25526,-18.76877z" fill="url(#color-68)" stroke-width="0"/><path d="M243.03968,148.00486c0,16.58513 -7.3947,30.03003 -16.51652,30.03003c-9.12182,0 -16.51652,-13.4449 -16.51652,-30.03003c0,-16.58513 7.3947,-30.03003 16.51652,-30.03003c9.12182,0 16.51652,13.4449 16.51652,30.03003z" fill="url(#color-69)" stroke-width="0"/><path d="M216.01265,269.62648c0,21.56067 -8.06694,39.03904 -18.01802,39.03904c-9.95108,0 -18.01802,-17.47837 -18.01802,-39.03904c0,-21.56067 8.06694,-39.03904 18.01802,-39.03904c9.95108,0 18.01802,17.47837 18.01802,39.03904z" fill="url(#color-70)" stroke-width="0"/></g></g></svg>