<svg version="1.1" xmlns="http://www.w3.org/2000/svg" xmlns:xlink="http://www.w3.org/1999/xlink" width="88.76771" height="166.42982" viewBox="0,0,88.76771,166.42982"><g transform="translate(-188.7422,-141.49446)"><g stroke="#000000" stroke-width="2.5" stroke-miterlimit="10"><g stroke-linecap="round"><path d="M203.54639,182.69103l-1.376,-3.43903l-4.72357,-1.47883l-4.99402,-3.12788l-0.54487,-3.40167l2.82116,-4.87859l7.4893,-4.84961l3.21458,-9.66437l5.07574,-5.58704l6.62852,-2.94989l5.27367,-0.40901l9.57507,0.87853l7.84954,4.57441l3.33246,5.7842l1.7735,6.16331l2.53692,1.25128l6.9973,3.98472l2.09037,3.13516l0.03895,3.73215l-4.20703,3.89445l-3.8944,1.22055l0.12272,3.21037l-2.73739,4.35683l-2.90234,0.0418l-0.64179,2.20248l-2.29544,5.06591l-3.31326,2.85773l-5.50123,2.59566l-0.56989,1.37004l-1.83242,0.89974l-0.05606,1.24669l0.88786,1.52174l2.39377,0.21964l6.46826,0.9973l2.98282,2.06393l10.38787,16.71539l10.47345,-2.75115l3.46232,-4.38453l2.98347,-0.6326l2.8476,1.23941l3.3179,-0.02311l0.58905,1.8443l-0.9083,0.657l-0.28693,0.63324l1.48944,0.98019l-0.24206,1.80692l0.4855,1.84826l-1.90432,1.73218l-0.77306,1.48152l-4.14242,0.15835l-5.00654,-0.74203l0.38853,2.02482l-14.88169,4.09506l-4.46498,-0.14046l-6.73286,-10.63238l0.11758,19.35507l0.84701,5.8792l0.34709,14.5064l-0.32584,2.32869l-1.18462,6.99398l0.43741,8.72965l-0.19984,2.91158l-0.87062,9.7822l-0.00919,5.18594l1.99076,3.24269l-0.19984,2.91158l-3.42606,2.62005l-0.92808,0.13919l-6.44055,-0.27237l-2.76779,-1.86473l-0.77218,-2.87441l2.21959,-4.33703l-2.33521,-17.68005l-1.31617,-26.29252l-2.08959,10.45107l-2.82444,7.50609l-0.42471,10.59485l-0.39445,0.53364l-4.7551,13.97545l0.42817,8.48801l-1.60946,1.30607l-6.31324,0.34503l-2.43336,-1.25524l-1.63322,0.6847l-3.52502,0.03103l-4.48082,-0.5547l-3.41687,-2.56589l0.67806,-3.96697l1.12333,-0.45778l7.43261,-0.90639l2.6332,-1.65634l1.0402,-2.63256l-0.18887,-14.61391l-0.12591,-1.76055l2.16917,-0.22959l1.75452,-8.36403l1.84548,-16.83731c0,0 13.30859,-5.57317 13.52389,-9.86084c0.30346,-6.04326 -11.87511,-22.97515 -11.87511,-22.97515l-7.93981,6.62992l6.8562,11.14623l2.53359,-1.54881l6.3449,0.48345l-3.45772,1.79156l3.73213,-0.03895l-0.24735,1.66884l-5.77564,0.84305l5.33306,1.1444l0.03563,0.93205l-6.1978,0.65176l4.21764,1.8093l-1.07979,1.59696l-4.22951,-2.11999l-4.63648,0.7995l-4.25458,-2.77587l-9.62336,-15.7075l-0.14647,-3.83174l6.76502,-7.51844l13.68574,-10.96347l8.28485,-0.31669l0.24006,-4.5725l-6.86207,-3.16019l-4.94984,-4.68525l-1.99409,-6.04278l-0.83245,-0.07189l-2.13455,-1.5778" fill="#f5dacf"/><path d="M245.73329,177.42598c0,0 1.90896,-16.81849 -20.5869,-14.85894c-21.48623,-1.09421 -23.16913,16.74594 -23.16913,16.74594l-4.50457,-1.17607l-5.00985,-3.54213l-0.63656,-3.08703l2.80928,-5.18927l7.9075,-4.76188l2.55133,-9.22418l5.67336,-6.23216l5.82378,-2.29685l5.5606,-1.04225l9.69843,1.39237l7.9531,4.57046l3.23286,5.89172l1.78037,5.8781l9.11997,5.25183l2.40897,3.33041l0.14251,3.72818l-3.79675,3.77504l-6.95831,0.84669z" fill="#9e6246"/></g><path d="M229.66505,202.8921l2.39377,0.21964l6.46826,0.9973l2.98282,2.06393l10.38787,16.71539l10.47345,-2.75115l2.21682,8.62706l-14.79834,4.09187l-4.46498,-0.14046l-6.73286,-10.63238l0.11758,19.35507l0.84701,5.8792l0.34709,14.5064l-0.32584,2.32869l-1.18462,6.99398l0.43741,8.72965l-0.19984,2.91158l-0.87062,9.7822l-0.00919,5.18594l1.99076,3.24269l-0.19984,2.91158l-3.42606,2.62005l-0.92808,0.13919l-6.44055,-0.27237l-2.76779,-1.86473l-0.77218,-2.87441l2.21959,-4.33703l-2.33521,-17.68005l-1.31617,-26.29252l-2.08959,10.45107l-2.82444,7.50609l-0.42471,10.59485l-0.39445,0.53364l-4.7551,13.97545l0.42817,8.48801l-1.60946,1.30607l-6.31324,0.34503l-2.43336,-1.25524l-1.63322,0.6847l-3.52502,0.03103l-4.48082,-0.5547l-3.41687,-2.56589l0.67806,-3.96697l1.12333,-0.45778l7.43261,-0.90639l2.6332,-1.65634l1.0402,-2.63256l-0.18887,-14.61391l-0.12591,-1.76055l2.16917,-0.22959l1.75452,-8.36403l1.84548,-16.83731l1.16878,-6.93968l5.51759,0.03938l-1.39683,-2.17102l4.43689,-1.02249l-3.54344,-1.70303l2.21844,-3.17239l1.74677,-1.63351l-8.75702,0.28879l0.25762,-16.52203l-7.93981,6.62992l6.8562,11.14623l-7.68191,5.23725l-9.62336,-15.7075l-0.14647,-3.83174l6.76502,-7.51844l13.68574,-10.96347l8.39088,-0.43114" fill="#55d8a6" stroke-linecap="round"/><path d="M216.34315,204.06187c0,0 2.14716,-0.24295 2.17676,0.15892c0.16748,2.27422 0.75261,9.84603 1.11849,9.84143c2.41412,-0.03034 10.39022,-0.15646 10.39845,-0.49877c0.05497,-2.28497 0.26821,-9.90103 0.66897,-9.92082c0.80602,-0.03978 1.8955,-0.03522 1.88201,0.28165c-0.10528,2.47353 -0.39086,9.83197 -0.07933,10.19333c1.59777,1.85334 5.80299,6.7551 5.80908,7.01354c0.04532,1.92024 0.47699,20.21532 0.47699,20.21532l0.84701,5.8792l0.34709,14.5064l-0.32584,2.32869l-1.18462,6.99398l0.43741,8.72965l-0.19984,2.91158l-0.87062,9.7822l-0.00919,5.18594l1.99076,3.24269l-0.19984,2.91158l-3.42606,2.62005l-0.92808,0.13919l-6.44055,-0.27237l-2.76779,-1.86473l-0.77218,-2.87441l2.21959,-4.33703l-2.33521,-17.68005l-1.31617,-26.29252l-2.08959,10.45107l-2.82444,7.50609l-0.42471,10.59485l-0.39445,0.53364l-4.7551,13.97545l0.42817,8.48801l-1.60946,1.30607l-6.31324,0.34503l-2.43336,-1.25524l-1.63322,0.6847l-3.52502,0.03103l-4.48082,-0.5547l-3.41687,-2.56589l0.67806,-3.96697l1.12333,-0.45778l7.43261,-0.90639l2.6332,-1.65634l1.0402,-2.63256l-0.18887,-14.61391l-0.12591,-1.76055l2.16917,-0.22959l1.75452,-8.36403l1.84548,-16.83731l1.16878,-6.93968l5.51759,0.03938l-1.39683,-2.17102l4.43689,-1.02249l-3.54344,-1.70303l2.21844,-3.17239l1.74677,-1.63351l-8.75702,0.28879c0,0 0.14317,-14.27621 0.16938,-15.95716c0.00378,-0.24179 4.11433,-3.12605 6.03264,-4.45905c0.58393,-0.40577 -0.04776,-10.49826 -0.04776,-10.49826" fill="#1d8bbc" stroke-linecap="round"/><path d="M218.3669,281.66628c0,0 -5.26765,14.97489 -5.2535,15.2554c0.05487,1.08774 0.40147,7.95874 0.40147,7.95874l-1.60946,1.30607l-6.31324,0.34503l-2.43336,-1.25524l-1.63322,0.6847l-3.52502,0.03103l-4.48082,-0.5547l-3.41687,-2.56589l0.67806,-3.96697l1.12333,-0.45778l7.43261,-0.90639l2.6332,-1.65634c0,0 0.67492,-1.62214 0.8707,-2.09268c0.09964,-0.23948 0.1065,-12.39064 0.1065,-12.39064" fill="#ff4816" stroke-linecap="round"/><path d="M239.43732,279.15749c0,0 -1.51021,18.60329 -1.37018,18.83138c0.33361,0.5434 1.69256,2.75694 1.69256,2.75694l-0.19984,2.91158l-3.42606,2.62005l-0.92808,0.13919l-6.44055,-0.27237l-2.76779,-1.86473l-0.77218,-2.87441c0,0 1.92155,-3.81345 2.29132,-4.54729c0.11809,-0.23437 -2.51642,-15.9685 -2.51642,-15.9685" fill="#ff4816" stroke-linecap="round"/><path d="M245.85362,172.09033c0.14428,3.77467 -1.40372,8.10615 -2.4399,8.14576c-1.03618,0.03961 -1.84334,-4.33606 -1.98763,-8.11072c-0.14429,-3.77467 -0.7537,-6.6145 0.28248,-6.65411c0.09501,-0.00363 2.59682,0.85947 3.72163,2.68735c0.64668,1.0509 0.37836,2.75275 0.42342,3.93172z" fill="#000000" stroke-linecap="butt"/><path d="M204.62373,172.71969c1.7491,-1.4148 2.86382,-4.03931 4.14024,-5.35184c2.28614,-2.3508 4.15646,-2.97604 4.47451,-2.56041c1.154,1.50805 1.31018,3.84515 1.47428,8.1379c0.08651,2.26286 -1.91081,2.07155 -2.75322,3.43813c-0.75567,1.22589 -0.2645,4.12578 -1.78691,4.18398c-1.25696,0.04805 -0.31276,-3.29898 -1.90235,-4.64639c-0.9312,-0.78933 -3.57743,1.17371 -3.83715,0.01414c-0.35593,-1.58915 -0.7213,-2.47787 0.19061,-3.21548z" fill="#000000" stroke-linecap="butt"/><path d="M233.25886,172.98223c1.97967,-0.07567 3.66674,2.01453 3.7682,4.66858c0.10146,2.65406 -1.42114,4.86695 -3.40081,4.94262c-1.97967,0.07567 -3.66674,-2.01453 -3.7682,-4.66858c-0.10146,-2.65406 1.42114,-4.86695 3.40081,-4.94262z" fill="#ffffff" stroke-linecap="butt"/><path d="M218.78857,173.67047c1.97967,-0.07567 3.66674,2.01453 3.7682,4.66858c0.10146,2.65406 -1.42114,4.86695 -3.40081,4.94262c-1.97967,0.07567 -3.66674,-2.01453 -3.7682,-4.66858c-0.10146,-2.65406 1.42114,-4.86695 3.40081,-4.94262z" fill="#ffffff" stroke-linecap="butt"/><path d="M233.5379,167.97021c3.13258,0.07901 6.63719,1.58831 6.61549,2.44823c-0.02169,0.85992 -3.68668,1.29811 -6.81927,1.21912c-3.13258,-0.079 -5.51569,0.27622 -5.494,-0.5837c0.00199,-0.07884 0.84807,-2.10469 2.42048,-2.9398c0.90403,-0.48013 2.29885,-0.16851 3.27729,-0.14383z" fill="#000000" stroke-linecap="butt"/><path d="M219.1611,168.0123c0.97369,-0.09929 2.34066,-0.51648 3.2787,-0.10676c1.63157,0.71264 2.62984,2.66799 2.63784,2.74645c0.08727,0.85576 -2.31599,0.6835 -5.43341,1.0014c-3.11741,0.3179 -6.80516,0.16077 -6.89243,-0.69499c-0.08727,-0.85576 3.29187,-2.6282 6.40929,-2.9461z" fill="#000000" stroke-linecap="butt"/><path d="M226.05284,190.67496c5.69745,-0.21779 10.13014,-5.26012 10.25244,-2.06079c0.1223,3.19933 -4.39726,5.96946 -10.0947,6.18724c-5.69745,0.21779 -10.41527,-2.19924 -10.53757,-5.39857c-0.1223,-3.19933 4.68239,1.4899 10.37983,1.27212z" fill="#ff0000" stroke-linecap="butt"/><path d="M233.56609,176.64663c0.34954,-0.01336 0.65347,0.51418 0.67886,1.1783c0.02538,0.66412 -0.23739,1.21332 -0.58693,1.22668c-0.34954,0.01336 -0.65347,-0.51418 -0.67886,-1.1783c-0.02538,-0.66412 0.23739,-1.21332 0.58693,-1.22668z" fill="#ff0000" stroke-linecap="butt"/><path d="M218.43476,178.74618c-0.02673,-0.69908 0.20662,-1.27553 0.52121,-1.28756c0.31457,-0.01202 0.59125,0.54494 0.61798,1.24401c0.02672,0.69908 -0.20663,1.27553 -0.52122,1.28756c-0.31457,0.01202 -0.59125,-0.54494 -0.61798,-1.24401z" fill="#ff0000" stroke-linecap="butt"/></g></g></svg>