<svg version="1.1" xmlns="http://www.w3.org/2000/svg" xmlns:xlink="http://www.w3.org/1999/xlink" width="640.15312" height="193.92163" viewBox="0,0,640.15312,193.92163"><defs><linearGradient x1="43.69535" y1="227.29131" x2="43.69535" y2="348.41698" gradientUnits="userSpaceOnUse" id="color-1"><stop offset="0" stop-color="#d9d9d9"/><stop offset="1" stop-color="#076900"/></linearGradient><linearGradient x1="180.69535" y1="203.03923" x2="180.69535" y2="324.16489" gradientUnits="userSpaceOnUse" id="color-2"><stop offset="0" stop-color="#d9d9d9"/><stop offset="1" stop-color="#076900"/></linearGradient><linearGradient x1="139.69535" y1="222.44088" x2="139.69535" y2="343.56657" gradientUnits="userSpaceOnUse" id="color-3"><stop offset="0" stop-color="#d9d9d9"/><stop offset="1" stop-color="#076900"/></linearGradient><linearGradient x1="93.69535" y1="255.1812" x2="93.69535" y2="376.30687" gradientUnits="userSpaceOnUse" id="color-4"><stop offset="0" stop-color="#d9d9d9"/><stop offset="1" stop-color="#076900"/></linearGradient><linearGradient x1="236.69535" y1="233.35433" x2="236.69535" y2="354.48" gradientUnits="userSpaceOnUse" id="color-5"><stop offset="0" stop-color="#d9d9d9"/><stop offset="1" stop-color="#076900"/></linearGradient><linearGradient x1="512.57444" y1="233.35432" x2="512.57444" y2="354.48002" gradientUnits="userSpaceOnUse" id="color-6"><stop offset="0" stop-color="#d9d9d9"/><stop offset="1" stop-color="#076900"/></linearGradient><linearGradient x1="375.57444" y1="209.10223" x2="375.57444" y2="330.2279" gradientUnits="userSpaceOnUse" id="color-7"><stop offset="0" stop-color="#d9d9d9"/><stop offset="1" stop-color="#076900"/></linearGradient><linearGradient x1="416.57444" y1="228.5039" x2="416.57444" y2="349.6296" gradientUnits="userSpaceOnUse" id="color-8"><stop offset="0" stop-color="#d9d9d9"/><stop offset="1" stop-color="#076900"/></linearGradient><linearGradient x1="462.57444" y1="261.2442" x2="462.57444" y2="382.36991" gradientUnits="userSpaceOnUse" id="color-9"><stop offset="0" stop-color="#d9d9d9"/><stop offset="1" stop-color="#076900"/></linearGradient><linearGradient x1="319.57444" y1="239.41733" x2="319.57444" y2="360.54304" gradientUnits="userSpaceOnUse" id="color-10"><stop offset="0" stop-color="#d9d9d9"/><stop offset="1" stop-color="#076900"/></linearGradient><linearGradient x1="-36.57656" y1="229.09037" x2="-36.57656" y2="350.21604" gradientUnits="userSpaceOnUse" id="color-11"><stop offset="0" stop-color="#d9d9d9"/><stop offset="1" stop-color="#076900"/></linearGradient><linearGradient x1="100.42344" y1="204.83827" x2="100.42344" y2="325.96394" gradientUnits="userSpaceOnUse" id="color-12"><stop offset="0" stop-color="#d9d9d9"/><stop offset="1" stop-color="#076900"/></linearGradient><linearGradient x1="59.42344" y1="224.23994" x2="59.42344" y2="345.3656" gradientUnits="userSpaceOnUse" id="color-13"><stop offset="0" stop-color="#d9d9d9"/><stop offset="1" stop-color="#076900"/></linearGradient><linearGradient x1="13.42344" y1="256.98024" x2="13.42344" y2="378.10593" gradientUnits="userSpaceOnUse" id="color-14"><stop offset="0" stop-color="#d9d9d9"/><stop offset="1" stop-color="#076900"/></linearGradient><linearGradient x1="156.42344" y1="235.15339" x2="156.42344" y2="356.27906" gradientUnits="userSpaceOnUse" id="color-15"><stop offset="0" stop-color="#d9d9d9"/><stop offset="1" stop-color="#076900"/></linearGradient><linearGradient x1="432.30253" y1="235.15337" x2="432.30253" y2="356.27907" gradientUnits="userSpaceOnUse" id="color-16"><stop offset="0" stop-color="#d9d9d9"/><stop offset="1" stop-color="#076900"/></linearGradient><linearGradient x1="295.30253" y1="210.90129" x2="295.30253" y2="332.02698" gradientUnits="userSpaceOnUse" id="color-17"><stop offset="0" stop-color="#d9d9d9"/><stop offset="1" stop-color="#076900"/></linearGradient><linearGradient x1="336.30253" y1="230.30296" x2="336.30253" y2="351.42864" gradientUnits="userSpaceOnUse" id="color-18"><stop offset="0" stop-color="#d9d9d9"/><stop offset="1" stop-color="#076900"/></linearGradient><linearGradient x1="382.30253" y1="263.04327" x2="382.30253" y2="384.16897" gradientUnits="userSpaceOnUse" id="color-19"><stop offset="0" stop-color="#d9d9d9"/><stop offset="1" stop-color="#076900"/></linearGradient><linearGradient x1="239.30253" y1="241.21639" x2="239.30253" y2="362.34209" gradientUnits="userSpaceOnUse" id="color-20"><stop offset="0" stop-color="#d9d9d9"/><stop offset="1" stop-color="#076900"/></linearGradient><linearGradient x1="323.57656" y1="247.94526" x2="323.57656" y2="369.07094" gradientUnits="userSpaceOnUse" id="color-21"><stop offset="0" stop-color="#d9d9d9"/><stop offset="1" stop-color="#076900"/></linearGradient><linearGradient x1="460.57656" y1="223.69319" x2="460.57656" y2="344.81886" gradientUnits="userSpaceOnUse" id="color-22"><stop offset="0" stop-color="#d9d9d9"/><stop offset="1" stop-color="#076900"/></linearGradient><linearGradient x1="419.57656" y1="243.09485" x2="419.57656" y2="364.22053" gradientUnits="userSpaceOnUse" id="color-23"><stop offset="0" stop-color="#d9d9d9"/><stop offset="1" stop-color="#076900"/></linearGradient><linearGradient x1="373.57656" y1="275.83516" x2="373.57656" y2="396.96084" gradientUnits="userSpaceOnUse" id="color-24"><stop offset="0" stop-color="#d9d9d9"/><stop offset="1" stop-color="#076900"/></linearGradient><linearGradient x1="516.57656" y1="254.00829" x2="516.57656" y2="375.13396" gradientUnits="userSpaceOnUse" id="color-25"><stop offset="0" stop-color="#d9d9d9"/><stop offset="1" stop-color="#076900"/></linearGradient><linearGradient x1="17.42344" y1="232.09037" x2="17.42344" y2="353.21604" gradientUnits="userSpaceOnUse" id="color-26"><stop offset="0" stop-color="#d9d9d9"/><stop offset="1" stop-color="#076900"/></linearGradient></defs><g transform="translate(80.07656,-203.03921)"><g stroke="none" stroke-width="0" stroke-miterlimit="10"><path d="M87.19535,287.85411c0,33.44794 -19.47562,60.56285 -43.5,60.56285c-24.02438,0 -43.5,-27.11491 -43.5,-60.56284c0,-33.44793 19.47562,-60.56283 43.5,-60.56283c24.02439,0 43.5,27.1149 43.5,60.56285z" fill="url(#color-1)"/><path d="M224.19535,263.60204c0,33.44794 -19.47562,60.56285 -43.5,60.56285c-24.02438,0 -43.5,-27.11491 -43.5,-60.56284c0,-33.44794 19.47562,-60.56284 43.5,-60.56284c24.02438,0 43.5,27.11491 43.5,60.56285z" fill="url(#color-2)"/><path d="M183.19535,283.0037c0,33.44794 -19.47562,60.56285 -43.5,60.56285c-24.02438,0 -43.5,-27.11491 -43.5,-60.56284c0,-33.44793 19.47562,-60.56284 43.5,-60.56284c24.02438,0 43.5,27.11491 43.5,60.56285z" fill="url(#color-3)"/><path d="M137.19535,315.74402c0,33.44794 -19.47562,60.56284 -43.5,60.56284c-24.02438,0 -43.5,-27.11491 -43.5,-60.56284c0,-33.44793 19.47562,-60.56284 43.5,-60.56284c24.02438,0 43.5,27.1149 43.5,60.56284z" fill="url(#color-4)"/><path d="M280.19535,293.91715c0,33.44794 -19.47562,60.56284 -43.5,60.56284c-24.02438,0 -43.5,-27.11491 -43.5,-60.56284c0,-33.44793 19.47562,-60.56283 43.5,-60.56283c24.02438,0 43.5,27.1149 43.5,60.56285z" fill="url(#color-5)"/><path d="M512.57444,233.35432c24.02438,0 43.5,27.11491 43.5,60.56285c0,33.44794 -19.47562,60.56285 -43.5,60.56285c-24.02438,0 -43.5,-27.11491 -43.5,-60.56284c0,-33.44793 19.47562,-60.56284 43.5,-60.56284z" fill="url(#color-6)"/><path d="M375.57444,209.10223c24.02438,0 43.5,27.1149 43.5,60.56285c0,33.44794 -19.47562,60.56285 -43.5,60.56285c-24.02438,0 -43.5,-27.1149 -43.5,-60.56283c0,-33.44793 19.47562,-60.56284 43.5,-60.56284z" fill="url(#color-7)"/><path d="M416.57444,228.5039c24.02438,0 43.5,27.11491 43.5,60.56285c0,33.44794 -19.47562,60.56285 -43.5,60.56285c-24.02438,0 -43.5,-27.11491 -43.5,-60.56284c0,-33.44793 19.47562,-60.56284 43.5,-60.56284z" fill="url(#color-8)"/><path d="M462.57444,261.2442c24.02438,0 43.5,27.1149 43.5,60.56284c0,33.44794 -19.47562,60.56285 -43.5,60.56285c-24.02438,0 -43.5,-27.11491 -43.5,-60.56284c0,-33.44793 19.47562,-60.56284 43.5,-60.56284z" fill="url(#color-9)"/><path d="M319.57444,239.41733c24.02438,0 43.5,27.11491 43.5,60.56285c0,33.44794 -19.47562,60.56285 -43.5,60.56285c-24.02438,0 -43.5,-27.11491 -43.5,-60.56284c0,-33.44793 19.47562,-60.56284 43.5,-60.56284z" fill="url(#color-10)"/><path d="M6.92344,289.65318c0,33.44794 -19.47562,60.56284 -43.5,60.56284c-24.02438,0 -43.5,-27.11491 -43.5,-60.56284c0,-33.44793 19.47562,-60.56283 43.5,-60.56283c24.02439,0 43.5,27.1149 43.5,60.56285z" fill="url(#color-11)"/><path d="M143.92344,265.40108c0,33.44794 -19.47562,60.56285 -43.5,60.56285c-24.02438,0 -43.5,-27.11491 -43.5,-60.56284c0,-33.44794 19.47562,-60.56284 43.5,-60.56284c24.02438,0 43.5,27.11491 43.5,60.56285z" fill="url(#color-12)"/><path d="M102.92344,284.80274c0,33.44794 -19.47562,60.56285 -43.5,60.56285c-24.02438,0 -43.5,-27.11491 -43.5,-60.56284c0,-33.44793 19.47562,-60.56283 43.5,-60.56283c24.02438,0 43.5,27.1149 43.5,60.56285z" fill="url(#color-13)"/><path d="M56.92344,317.54305c0,33.44794 -19.47562,60.56285 -43.5,60.56285c-24.02438,0 -43.5,-27.11491 -43.5,-60.56284c0,-33.44793 19.47562,-60.56284 43.5,-60.56284c24.02438,0 43.5,27.11491 43.5,60.56285z" fill="url(#color-14)"/><path d="M199.92344,295.71619c0,33.44794 -19.47562,60.56284 -43.5,60.56284c-24.02438,0 -43.5,-27.11491 -43.5,-60.56284c0,-33.44793 19.47562,-60.56283 43.5,-60.56283c24.02438,0 43.5,27.11491 43.5,60.56285z" fill="url(#color-15)"/><path d="M432.30253,235.15337c24.02438,0 43.5,27.1149 43.5,60.56284c0,33.44794 -19.47562,60.56285 -43.5,60.56285c-24.02438,0 -43.5,-27.11491 -43.5,-60.56284c0,-33.44793 19.47562,-60.56284 43.5,-60.56284z" fill="url(#color-16)"/><path d="M295.30253,210.90129c24.02438,0 43.5,27.11491 43.5,60.56285c0,33.44794 -19.47562,60.56284 -43.5,60.56284c-24.02438,0 -43.5,-27.11491 -43.5,-60.56284c0,-33.44793 19.47562,-60.56283 43.5,-60.56283z" fill="url(#color-17)"/><path d="M336.30253,230.30296c24.02438,0 43.5,27.11491 43.5,60.56285c0,33.44794 -19.47562,60.56285 -43.5,60.56285c-24.02438,0 -43.5,-27.11491 -43.5,-60.56284c0,-33.44793 19.47562,-60.56284 43.5,-60.56284z" fill="url(#color-18)"/><path d="M382.30253,263.04327c24.02438,0 43.5,27.1149 43.5,60.56284c0,33.44794 -19.47562,60.56285 -43.5,60.56285c-24.02438,0 -43.5,-27.1149 -43.5,-60.56283c0,-33.44793 19.47562,-60.56284 43.5,-60.56284z" fill="url(#color-19)"/><path d="M239.30253,241.21639c24.02438,0 43.5,27.1149 43.5,60.56284c0,33.44794 -19.47562,60.56285 -43.5,60.56285c-24.02438,0 -43.5,-27.11491 -43.5,-60.56284c0,-33.44793 19.47562,-60.56284 43.5,-60.56284z" fill="url(#color-20)"/><path d="M367.07656,308.50807c0,33.44794 -19.47562,60.56285 -43.5,60.56285c-24.02438,0 -43.5,-27.11491 -43.5,-60.56284c0,-33.44793 19.47562,-60.56284 43.5,-60.56284c24.02439,0 43.5,27.1149 43.5,60.56284z" fill="url(#color-21)"/><path d="M504.07656,284.256c0,33.44794 -19.47562,60.56284 -43.5,60.56284c-24.02438,0 -43.5,-27.11491 -43.5,-60.56284c0,-33.44794 19.47562,-60.56284 43.5,-60.56284c24.02438,0 43.5,27.1149 43.5,60.56284z" fill="url(#color-22)"/><path d="M463.07656,303.65765c0,33.44794 -19.47562,60.56285 -43.5,60.56285c-24.02438,0 -43.5,-27.11491 -43.5,-60.56284c0,-33.44793 19.47562,-60.56283 43.5,-60.56283c24.02438,0 43.5,27.11491 43.5,60.56285z" fill="url(#color-23)"/><path d="M417.07656,336.39799c0,33.44794 -19.47562,60.56285 -43.5,60.56285c-24.02438,0 -43.5,-27.11491 -43.5,-60.56284c0,-33.44793 19.47562,-60.56284 43.5,-60.56284c24.02438,0 43.5,27.11491 43.5,60.56285z" fill="url(#color-24)"/><path d="M560.07656,314.57111c0,33.44794 -19.47562,60.56285 -43.5,60.56285c-24.02438,0 -43.5,-27.11491 -43.5,-60.56284c0,-33.44793 19.47562,-60.56284 43.5,-60.56284c24.02438,0 43.5,27.1149 43.5,60.56284z" fill="url(#color-25)"/><path d="M60.92344,292.65318c0,33.44794 -19.47562,60.56284 -43.5,60.56284c-24.02438,0 -43.5,-27.11491 -43.5,-60.56284c0,-33.44793 19.47562,-60.56283 43.5,-60.56283c24.02439,0 43.5,27.1149 43.5,60.56285z" fill="url(#color-26)"/></g></g></svg>