<svg version="1.1" xmlns="http://www.w3.org/2000/svg" xmlns:xlink="http://www.w3.org/1999/xlink" width="542.04203" height="436.93694" viewBox="0,0,542.04203,436.93694"><defs><radialGradient cx="16.19443" cy="5.65623" r="15.76577" gradientUnits="userSpaceOnUse" id="color-1"><stop offset="0" stop-color="#ffffff" stop-opacity="0"/><stop offset="1" stop-color="#ffffff" stop-opacity="0.2902"/></radialGradient><radialGradient cx="166.19443" cy="0.65623" r="20.27027" gradientUnits="userSpaceOnUse" id="color-2"><stop offset="0" stop-color="#ffffff" stop-opacity="0"/><stop offset="1" stop-color="#ffffff" stop-opacity="0.2902"/></radialGradient><radialGradient cx="390.19443" cy="27.65623" r="61.56156" gradientUnits="userSpaceOnUse" id="color-3"><stop offset="0" stop-color="#ffffff" stop-opacity="0"/><stop offset="1" stop-color="#ffffff" stop-opacity="0.2902"/></radialGradient><radialGradient cx="43.19443" cy="145.65623" r="36.78679" gradientUnits="userSpaceOnUse" id="color-4"><stop offset="0" stop-color="#ffffff" stop-opacity="0"/><stop offset="1" stop-color="#ffffff" stop-opacity="0.2902"/></radialGradient><radialGradient cx="313.19443" cy="162.65623" r="15.76577" gradientUnits="userSpaceOnUse" id="color-5"><stop offset="0" stop-color="#ffffff" stop-opacity="0"/><stop offset="1" stop-color="#ffffff" stop-opacity="0.2902"/></radialGradient><radialGradient cx="471.19443" cy="140.65623" r="66.06607" gradientUnits="userSpaceOnUse" id="color-6"><stop offset="0" stop-color="#ffffff" stop-opacity="0"/><stop offset="1" stop-color="#ffffff" stop-opacity="0.2902"/></radialGradient><radialGradient cx="421.22286" cy="315.15201" r="52.55255" gradientUnits="userSpaceOnUse" id="color-7"><stop offset="0" stop-color="#00f2ff" stop-opacity="0"/><stop offset="1" stop-color="#00f2ff" stop-opacity="0.2902"/></radialGradient><radialGradient cx="174.19443" cy="265.65623" r="45.7958" gradientUnits="userSpaceOnUse" id="color-8"><stop offset="0" stop-color="#ffffff" stop-opacity="0"/><stop offset="1" stop-color="#ffffff" stop-opacity="0.2902"/></radialGradient><radialGradient cx="28.19443" cy="235.65623" r="40.54054" gradientUnits="userSpaceOnUse" id="color-9"><stop offset="0" stop-color="#ffffff" stop-opacity="0"/><stop offset="1" stop-color="#ffffff" stop-opacity="0.2902"/></radialGradient><radialGradient cx="286.83848" cy="343.68054" r="68.31832" gradientUnits="userSpaceOnUse" id="color-10"><stop offset="0" stop-color="#00f2ff" stop-opacity="0"/><stop offset="1" stop-color="#00f2ff" stop-opacity="0.2902"/></radialGradient><radialGradient cx="152.45409" cy="367.70456" r="106.60661" gradientUnits="userSpaceOnUse" id="color-11"><stop offset="0" stop-color="#00f2ff" stop-opacity="0"/><stop offset="1" stop-color="#00f2ff" stop-opacity="0.2902"/></radialGradient><radialGradient cx="33.19443" cy="250.65623" r="22.52252" gradientUnits="userSpaceOnUse" id="color-12"><stop offset="0" stop-color="#ffffff" stop-opacity="0"/><stop offset="1" stop-color="#ffffff" stop-opacity="0.2902"/></radialGradient><radialGradient cx="-11.96032" cy="330.16702" r="33.78378" gradientUnits="userSpaceOnUse" id="color-13"><stop offset="0" stop-color="#00f2ff" stop-opacity="0"/><stop offset="1" stop-color="#00f2ff" stop-opacity="0.2902"/></radialGradient><radialGradient cx="307.10875" cy="336.92378" r="58.55856" gradientUnits="userSpaceOnUse" id="color-14"><stop offset="0" stop-color="#00f2ff" stop-opacity="0"/><stop offset="1" stop-color="#00f2ff" stop-opacity="0.2902"/></radialGradient><radialGradient cx="442.19443" cy="202.65623" r="9.75976" gradientUnits="userSpaceOnUse" id="color-15"><stop offset="0" stop-color="#ffffff" stop-opacity="0"/><stop offset="1" stop-color="#ffffff" stop-opacity="0.2902"/></radialGradient><radialGradient cx="450.19443" cy="190.65623" r="63.06306" gradientUnits="userSpaceOnUse" id="color-16"><stop offset="0" stop-color="#ffffff" stop-opacity="0"/><stop offset="1" stop-color="#ffffff" stop-opacity="0.2902"/></radialGradient><radialGradient cx="452.19443" cy="30.65623" r="33.78378" gradientUnits="userSpaceOnUse" id="color-17"><stop offset="0" stop-color="#ffffff" stop-opacity="0"/><stop offset="1" stop-color="#ffffff" stop-opacity="0.2902"/></radialGradient><radialGradient cx="174.19443" cy="8.65623" r="66.06607" gradientUnits="userSpaceOnUse" id="color-18"><stop offset="0" stop-color="#ffffff" stop-opacity="0"/><stop offset="1" stop-color="#ffffff" stop-opacity="0.2902"/></radialGradient><radialGradient cx="40.19443" cy="35.65623" r="38.28829" gradientUnits="userSpaceOnUse" id="color-19"><stop offset="0" stop-color="#ffffff" stop-opacity="0"/><stop offset="1" stop-color="#ffffff" stop-opacity="0.2902"/></radialGradient><radialGradient cx="-7.80557" cy="132.65623" r="53.3033" gradientUnits="userSpaceOnUse" id="color-20"><stop offset="0" stop-color="#ffffff" stop-opacity="0"/><stop offset="1" stop-color="#ffffff" stop-opacity="0.2902"/></radialGradient><radialGradient cx="99.19443" cy="32.65623" r="33.03303" gradientUnits="userSpaceOnUse" id="color-21"><stop offset="0" stop-color="#ffffff" stop-opacity="0"/><stop offset="1" stop-color="#ffffff" stop-opacity="0.2902"/></radialGradient><radialGradient cx="125.19443" cy="157.65623" r="11.26126" gradientUnits="userSpaceOnUse" id="color-22"><stop offset="0" stop-color="#ffffff" stop-opacity="0"/><stop offset="1" stop-color="#ffffff" stop-opacity="0.2902"/></radialGradient><radialGradient cx="210.19443" cy="120.65623" r="15.01502" gradientUnits="userSpaceOnUse" id="color-23"><stop offset="0" stop-color="#ffffff" stop-opacity="0"/><stop offset="1" stop-color="#ffffff" stop-opacity="0.2902"/></radialGradient><radialGradient cx="276.19443" cy="225.65623" r="30.03003" gradientUnits="userSpaceOnUse" id="color-24"><stop offset="0" stop-color="#ffffff" stop-opacity="0"/><stop offset="1" stop-color="#ffffff" stop-opacity="0.2902"/></radialGradient><radialGradient cx="345.19443" cy="106.65623" r="29.27928" gradientUnits="userSpaceOnUse" id="color-25"><stop offset="0" stop-color="#ffffff" stop-opacity="0"/><stop offset="1" stop-color="#ffffff" stop-opacity="0.2902"/></radialGradient><radialGradient cx="368.19443" cy="218.65623" r="39.03904" gradientUnits="userSpaceOnUse" id="color-26"><stop offset="0" stop-color="#ffffff" stop-opacity="0"/><stop offset="1" stop-color="#ffffff" stop-opacity="0.2902"/></radialGradient><radialGradient cx="94.19443" cy="213.65623" r="32.28228" gradientUnits="userSpaceOnUse" id="color-27"><stop offset="0" stop-color="#ffffff" stop-opacity="0"/><stop offset="1" stop-color="#ffffff" stop-opacity="0.2902"/></radialGradient><radialGradient cx="187.73938" cy="150.73759" r="13.51351" gradientUnits="userSpaceOnUse" id="color-28"><stop offset="0" stop-color="#00f2ff" stop-opacity="0"/><stop offset="1" stop-color="#00f2ff" stop-opacity="0.2902"/></radialGradient><radialGradient cx="254.19443" cy="136.65623" r="46.54655" gradientUnits="userSpaceOnUse" id="color-29"><stop offset="0" stop-color="#ffffff" stop-opacity="0"/><stop offset="1" stop-color="#ffffff" stop-opacity="0.2902"/></radialGradient><radialGradient cx="243.19443" cy="240.65623" r="24.77477" gradientUnits="userSpaceOnUse" id="color-30"><stop offset="0" stop-color="#ffffff" stop-opacity="0"/><stop offset="1" stop-color="#ffffff" stop-opacity="0.2902"/></radialGradient><radialGradient cx="178.73037" cy="184.52138" r="32.28228" gradientUnits="userSpaceOnUse" id="color-31"><stop offset="0" stop-color="#00f2ff" stop-opacity="0"/><stop offset="1" stop-color="#00f2ff" stop-opacity="0.2902"/></radialGradient><radialGradient cx="203.19443" cy="97.65623" r="46.54655" gradientUnits="userSpaceOnUse" id="color-32"><stop offset="0" stop-color="#ffffff" stop-opacity="0"/><stop offset="1" stop-color="#ffffff" stop-opacity="0.2902"/></radialGradient><radialGradient cx="416.19443" cy="195.65623" r="18.76877" gradientUnits="userSpaceOnUse" id="color-33"><stop offset="0" stop-color="#ffffff" stop-opacity="0"/><stop offset="1" stop-color="#ffffff" stop-opacity="0.2902"/></radialGradient><radialGradient cx="213.19443" cy="264.65623" r="30.03003" gradientUnits="userSpaceOnUse" id="color-34"><stop offset="0" stop-color="#ffffff" stop-opacity="0"/><stop offset="1" stop-color="#ffffff" stop-opacity="0.2902"/></radialGradient><radialGradient cx="180.19443" cy="190.65623" r="39.03904" gradientUnits="userSpaceOnUse" id="color-35"><stop offset="0" stop-color="#ffffff" stop-opacity="0"/><stop offset="1" stop-color="#ffffff" stop-opacity="0.2902"/></radialGradient></defs><g transform="translate(45.7441,11.42457)"><g stroke="none" stroke-miterlimit="10"><path d="M23.32497,4.3412c0,8.70719 -5.37796,15.76577 -12.01201,15.76577c-6.63405,0 -12.01201,-7.05857 -12.01201,-15.76577c0,-8.70719 5.37796,-15.76577 12.01201,-15.76577c6.63405,0 12.01201,7.05857 12.01201,15.76577z" fill="url(#color-1)" stroke-width="NaN"/><path d="M205.00665,5.09195c0,6.63405 -9.07531,12.01201 -20.27027,12.01201c-11.19496,0 -20.27027,-5.37796 -20.27027,-12.01201c0,-6.63405 9.07531,-12.01201 20.27027,-12.01201c11.19496,0 20.27027,5.37796 20.27027,12.01201z" fill="url(#color-2)" stroke-width="0"/><path d="M374.67632,-11.42457c33.99951,0 61.56156,12.10042 61.56156,27.02703c0,14.92662 -27.56205,27.02703 -61.56156,27.02703c-33.99951,0 -61.56156,-12.10042 -61.56156,-27.02703c0,-14.92662 27.56205,-27.02703 61.56156,-27.02703z" fill="url(#color-3)" stroke-width="0"/><path d="M54.8565,117.70456c10.78033,0 19.51952,16.47001 19.51952,36.78679c0,20.31678 -8.73919,36.78679 -19.51952,36.78679c-10.78033,0 -19.51952,-16.47001 -19.51952,-36.78679c0,-20.31678 8.73919,-36.78679 19.51952,-36.78679z" fill="url(#color-4)" stroke-width="0"/><path d="M316.11776,158.99585c0,8.70719 -5.37796,15.76577 -12.01201,15.76577c-6.63405,0 -12.01201,-7.05857 -12.01201,-15.76577c0,-8.70719 5.37796,-15.76577 12.01201,-15.76577c6.63405,0 12.01201,7.05857 12.01201,15.76577z" fill="url(#color-5)" stroke-width="0"/><path d="M461.76341,101.18804c9.95108,0 18.01802,29.57879 18.01802,66.06607c0,36.48728 -8.06694,66.06607 -18.01802,66.06607c-9.95108,0 -18.01802,-29.57879 -18.01802,-66.06607c0,-36.48728 8.06694,-66.06607 18.01802,-66.06607z" fill="url(#color-6)" stroke-width="0"/><path d="M421.22287,341.42829c-29.02397,0 -52.55255,-11.76429 -52.55255,-26.27628c0,-14.51199 23.52858,-26.27628 52.55255,-26.27628c29.02397,0 52.55255,11.76429 52.55255,26.27628c0,14.51199 -23.52858,26.27628 -52.55255,26.27628z" fill="url(#color-7)" stroke-width="0"/><path d="M164.46611,326.41327c-13.2681,0 -24.02402,-20.50348 -24.02402,-45.7958c0,-25.29232 10.75592,-45.7958 24.02402,-45.7958c13.2681,0 24.02402,20.50348 24.02402,45.7958c0,25.29232 -10.75592,45.7958 -24.02402,45.7958z" fill="url(#color-8)" stroke-width="0"/><path d="M36.83848,305.39225c-9.95108,0 -18.01802,-18.15062 -18.01802,-40.54054c0,-22.38992 8.06694,-40.54054 18.01802,-40.54054c9.95108,0 18.01802,18.15062 18.01802,40.54054c0,22.38992 -8.06694,40.54054 -18.01802,40.54054z" fill="url(#color-9)" stroke-width="0"/><path d="M299.60124,343.68054c0,37.73117 -5.71408,68.31832 -12.76276,68.31832c-7.04868,0 -12.76276,-30.58715 -12.76276,-68.31832c0,-37.73117 5.71408,-68.31832 12.76276,-68.31832c7.04868,0 12.76276,30.58715 12.76276,68.31832z" fill="url(#color-10)" stroke-width="0"/><path d="M152.4541,309.89675c58.87721,0 106.60661,25.88144 106.60661,57.80781c0,31.92637 -47.72941,57.80781 -106.60661,57.80781c-58.87721,0 -106.60661,-25.88144 -106.60661,-57.80781c0,-31.92637 47.72941,-57.80781 106.60661,-57.80781z" fill="url(#color-11)" stroke-width="0"/><path d="M36.83848,239.32618c12.43884,0 22.52252,7.3947 22.52252,16.51652c0,9.12182 -10.08367,16.51652 -22.52252,16.51652c-12.43884,0 -22.52252,-7.3947 -22.52252,-16.51652c0,-9.12182 10.08367,-16.51652 22.52252,-16.51652z" fill="url(#color-12)" stroke-width="0"/><path d="M21.82346,330.16702c0,4.56091 -15.12552,8.25826 -33.78378,8.25826c-18.65827,0 -33.78378,-3.69735 -33.78378,-8.25826c0,-4.56091 15.12552,-8.25826 33.78378,-8.25826c18.65827,0 33.78378,3.69735 33.78378,8.25826z" fill="url(#color-13)" stroke-width="0"/><path d="M365.66731,336.92378c0,25.70695 -26.21756,46.54655 -58.55856,46.54655c-32.341,0 -58.55856,-20.8396 -58.55856,-46.54655c0,-25.70695 26.21756,-46.54655 58.55856,-46.54655c32.341,0 58.55856,20.8396 58.55856,46.54655z" fill="url(#color-14)" stroke-width="0"/><path d="M440.74238,200.28714c0,-1.65851 4.36959,-3.003 9.75976,-3.003c5.39017,0 9.75976,1.34449 9.75976,3.003c0,1.65851 -4.36959,3.003 -9.75976,3.003c-5.39017,0 -9.75976,-1.34449 -9.75976,-3.003z" fill="url(#color-15)" stroke-width="0"/><path d="M449.75139,209.29615c0,-34.82877 10.4198,-63.06306 23.27327,-63.06306c12.85347,0 23.27327,28.2343 23.27327,63.06306c0,34.82877 -10.4198,63.06306 -23.27327,63.06306c-12.85347,0 -23.27327,-28.2343 -23.27327,-63.06306z" fill="url(#color-16)" stroke-width="0"/><path d="M442.24388,31.36822c0,-18.65827 7.05857,-33.78378 15.76577,-33.78378c8.70719,0 15.76577,15.12552 15.76577,33.78378c0,18.65827 -7.05857,33.78378 -15.76577,33.78378c-8.70719,0 -15.76577,-15.12552 -15.76577,-33.78378z" fill="url(#color-17)" stroke-width="0"/><path d="M278.58022,20.10696c0,9.95108 -29.57879,18.01802 -66.06607,18.01802c-36.48728,0 -66.06607,-8.06694 -66.06607,-18.01802c0,-9.95108 29.57879,-18.01802 66.06607,-18.01802c36.48728,0 66.06607,8.06694 66.06607,18.01802z" fill="url(#color-18)" stroke-width="0"/><path d="M45.09674,-8.42157c10.36571,0 18.76877,17.14225 18.76877,38.28829c0,21.14604 -8.40307,38.28829 -18.76877,38.28829c-10.36571,0 -18.76877,-17.14225 -18.76877,-38.28829c0,-21.14604 8.40307,-38.28829 18.76877,-38.28829z" fill="url(#color-19)" stroke-width="0"/><path d="M-2.95131,191.27813c-22.80455,0 -41.29129,-23.8647 -41.29129,-53.3033c0,-29.4386 18.48674,-53.3033 41.29129,-53.3033c22.80455,0 41.29129,23.8647 41.29129,53.3033c0,29.4386 -18.48674,53.3033 -41.29129,53.3033z" fill="url(#color-20)" stroke-width="0"/><path d="M109.6613,-0.91405c6.21942,0 11.26126,14.78939 11.26126,33.03303c0,18.24364 -5.04184,33.03303 -11.26126,33.03303c-6.21942,0 -11.26126,-14.78939 -11.26126,-33.03303c0,-18.24364 5.04184,-33.03303 11.26126,-33.03303z" fill="url(#color-21)" stroke-width="0"/><path d="M131.43307,147.73459c0,4.97554 -5.04184,9.00901 -11.26126,9.00901c-6.21942,0 -11.26126,-4.03347 -11.26126,-9.00901c0,-4.97554 5.04184,-9.00901 11.26126,-9.00901c6.21942,0 11.26126,4.03347 11.26126,9.00901z" fill="url(#color-22)" stroke-width="0"/><path d="M218.52016,119.20606c0,8.29256 -3.0251,15.01502 -6.75676,15.01502c-3.73165,0 -6.75676,-6.72245 -6.75676,-15.01502c0,-8.29256 3.0251,-15.01502 6.75676,-15.01502c3.73165,0 6.75676,6.72245 6.75676,15.01502z" fill="url(#color-23)" stroke-width="0"/><path d="M275.57722,248.33519c-16.58513,0 -30.03003,-13.4449 -30.03003,-30.03003c0,-16.58513 13.4449,-30.03003 30.03003,-30.03003c16.58513,0 30.03003,13.4449 30.03003,30.03003c0,16.58513 -13.4449,30.03003 -30.03003,30.03003z" fill="url(#color-24)" stroke-width="0"/><path d="M383.68533,104.9418c0,3.73165 -13.10878,6.75676 -29.27928,6.75676c-16.1705,0 -29.27928,-3.0251 -29.27928,-6.75676c0,-3.73165 13.10878,-6.75676 29.27928,-6.75676c16.1705,0 29.27928,3.0251 29.27928,6.75676z" fill="url(#color-25)" stroke-width="0"/><path d="M365.66731,171.75861c5.80479,0 10.51051,17.47837 10.51051,39.03904c0,21.56067 -4.70572,39.03904 -10.51051,39.03904c-5.80479,0 -10.51051,-17.47837 -10.51051,-39.03904c0,-21.56067 4.70572,-39.03904 10.51051,-39.03904z" fill="url(#color-26)" stroke-width="0"/><path d="M102.90455,179.26613c9.95108,0 18.01802,14.45327 18.01802,32.28228c0,17.82901 -8.06694,32.28228 -18.01802,32.28228c-9.95108,0 -18.01802,-14.45327 -18.01802,-32.28228c0,-17.82901 8.06694,-32.28228 18.01802,-32.28228z" fill="url(#color-27)" stroke-width="0"/><path d="M187.73938,137.22408c0.41463,0 0.75075,6.0502 0.75075,13.51351c0,7.4633 -0.33612,13.51351 -0.75075,13.51351c-0.41463,0 -0.75075,-6.0502 -0.75075,-13.51351c0,-7.4633 0.33612,-13.51351 0.75075,-13.51351z" fill="url(#color-28)" stroke-width="0"/><path d="M243.29493,92.17903c6.21942,0 11.26126,20.8396 11.26126,46.54655c0,25.70695 -5.04184,46.54655 -11.26126,46.54655c-6.21942,0 -11.26126,-20.8396 -11.26126,-46.54655c0,-25.70695 5.04184,-46.54655 11.26126,-46.54655z" fill="url(#color-29)" stroke-width="0"/><path d="M229.78143,245.33218c-13.68273,0 -24.77477,-2.01673 -24.77477,-4.5045c0,-2.48776 11.09204,-4.5045 24.77477,-4.5045c13.68273,0 24.77477,2.01673 24.77477,4.5045c0,2.48776 -11.09204,4.5045 -24.77477,4.5045z" fill="url(#color-30)" stroke-width="0"/><path d="M178.73037,216.80366c-0.41463,0 -0.75075,-14.45327 -0.75075,-32.28228c0,-17.82901 0.33612,-32.28228 0.75075,-32.28228c0.41463,0 0.75075,14.45327 0.75075,32.28228c0,17.82901 -0.33612,32.28228 -0.75075,32.28228z" fill="url(#color-31)" stroke-width="0"/><path d="M223.02466,101.9388c0,7.87794 -20.8396,14.26426 -46.54655,14.26426c-25.70695,0 -46.54655,-6.38633 -46.54655,-14.26426c0,-7.87794 20.8396,-14.26426 46.54655,-14.26426c25.70695,0 46.54655,6.38633 46.54655,14.26426z" fill="url(#color-32)" stroke-width="0"/><path d="M420.47212,162.7496c2.9024,0 5.25526,8.40307 5.25526,18.76877c0,10.36571 -2.35286,18.76877 -5.25526,18.76877c-2.9024,0 -5.25526,-8.40307 -5.25526,-18.76877c0,-10.36571 2.35286,-18.76877 5.25526,-18.76877z" fill="url(#color-33)" stroke-width="0"/><path d="M212.51415,303.89075c-9.12182,0 -16.51652,-13.4449 -16.51652,-30.03003c0,-16.58513 7.3947,-30.03003 16.51652,-30.03003c9.12182,0 16.51652,13.4449 16.51652,30.03003c0,16.58513 -7.3947,30.03003 -16.51652,30.03003z" fill="url(#color-34)" stroke-width="0"/><path d="M183.98562,191.27814c-9.95108,0 -18.01802,-17.47837 -18.01802,-39.03904c0,-21.56067 8.06694,-39.03904 18.01802,-39.03904c9.95108,0 18.01802,17.47837 18.01802,39.03904c0,21.56067 -8.06694,39.03904 -18.01802,39.03904z" fill="url(#color-35)" stroke-width="0"/></g></g></svg>